<svg width="820" height="820" viewBox="0 0 820 820" fill="none" xmlns="http://www.w3.org/2000/svg">
<path fill-rule="evenodd" clip-rule="evenodd" d="M805 410C805 191.848 628.152 15 410 15C403.085 15 396.211 15.1777 389.383 15.5288L381 1.00974C390.58 0.340322 400.25 0 410 0C636.437 0 820 183.563 820 410C820 493.734 794.899 571.606 751.81 636.5L746.554 616.883C783.619 556.714 805 485.854 805 410ZM81.97 164C30.4995 232.524 0 317.7 0 410C0 636.437 183.563 820 410 820C424.522 820 438.868 819.245 453 817.772L444.755 803.492C433.303 804.49 421.711 805 410 805C191.848 805 15 628.152 15 410C15 325.351 41.6268 246.922 86.9618 182.63L81.97 164Z" fill="#EBAE2E"/>
<circle cx="410" cy="410" r="315" fill="#204070"/>
<path fill-rule="evenodd" clip-rule="evenodd" d="M771.859 500.66L751.781 506.04C710.217 652.622 575.398 760 415.5 760C222.476 760 66 603.524 66 410.5C66 217.476 222.476 61 415.5 61C541.848 61 652.536 128.045 713.931 228.498H734.84C671.55 117.689 552.247 43 415.5 43C212.535 43 48 207.535 48 410.5C48 613.465 212.535 778 415.5 778C587.357 778 731.662 660.035 771.859 500.66Z" fill="#EBAE2E"/>
<circle cx="410" cy="410" r="290" stroke="#F7F7F8" stroke-width="20"/>
<rect x="320" y="291" width="45" height="230" fill="#F8F9F9"/>
<rect x="455" y="291" width="45" height="230" fill="#F8F9F9"/>
<rect x="455" y="386" width="40" height="75" transform="rotate(90 455 386)" fill="#F8F9F9"/>
</svg>
