<svg width="850" height="850" viewBox="0 0 850 850" fill="none" xmlns="http://www.w3.org/2000/svg">
<path fill-rule="evenodd" clip-rule="evenodd" d="M742 425.5C742 600.85 599.85 743 424.5 743C249.15 743 107 600.85 107 425.5C107 250.15 249.15 108 424.5 108C599.85 108 742 250.15 742 425.5ZM515 311H470V406H395V446H470V541H515V311ZM425 145C579.64 145 705 270.36 705 425C705 579.64 579.64 705 425 705C270.36 705 145 579.64 145 425C145 270.36 270.36 145 425 145ZM425 725C590.685 725 725 590.685 725 425C725 259.315 590.685 125 425 125C259.315 125 125 259.315 125 425C125 590.685 259.315 725 425 725Z" fill="#204070"/>
<path d="M335 311H380V541H335V311Z" fill="#F8F9F9"/>
<path fill-rule="evenodd" clip-rule="evenodd" d="M825 425C825 204.086 645.914 25 425 25C424.833 25 424.667 25.0001 424.5 25.0003V5.00029C424.667 5.00009 424.833 5 425 5C656.96 5 845 193.04 845 425C845 541.234 797.783 646.44 721.484 722.484L707.342 708.342C780.022 635.917 825 535.711 825 425ZM425 825V845C193.04 845 5 656.96 5 425C5 309.275 51.8042 204.481 127.516 128.516L141.658 142.658C69.5656 215.004 25 314.797 25 425C25 645.914 204.086 825 425 825Z" fill="#EBAE2E"/>
<path d="M515 311H470V406H395V446H470V541H515V311Z" fill="#F8F9F9"/>
<path d="M705 425C705 270.36 579.64 145 425 145C270.36 145 145 270.36 145 425C145 579.64 270.36 705 425 705C579.64 705 705 579.64 705 425ZM725 425C725 590.685 590.685 725 425 725C259.315 725 125 590.685 125 425C125 259.315 259.315 125 425 125C590.685 125 725 259.315 725 425Z" fill="#F7F7F8"/>
<path fill-rule="evenodd" clip-rule="evenodd" d="M424.5 78C561.423 78 679.851 157.191 736.479 272.271L751.375 257.375C690.351 138.97 566.881 58 424.5 58C221.535 58 57 222.535 57 425.5C57 628.465 221.535 793 424.5 793C566.881 793 690.351 712.03 751.375 593.625L736.479 578.729C679.851 693.809 561.423 773 424.5 773C232.581 773 77 617.419 77 425.5C77 233.581 232.581 78 424.5 78Z" fill="#EBAE2E"/>
</svg>
